HIERARCHY
ROOT Hips
{
	OFFSET -0.001795 -0.223333 0.028219
	CHANNELS 6 Xposition Yposition Zposition Zrotation Yrotation Xrotation 
	JOINT LeftUpLeg
	{
		OFFSET 0.069520 -0.091406 -0.006815
		CHANNELS 3 Zrotation Yrotation Xrotation
		JOINT LeftLeg
		{
			OFFSET 0.034277 -0.375199 -0.004496
			CHANNELS 3 Zrotation Yrotation Xrotation
			JOINT LeftFoot
			{
				OFFSET -0.013596 -0.397961 -0.043693
				CHANNELS 3 Zrotation Yrotation Xrotation
				JOINT LeftToe
				{
					OFFSET 0.026358 -0.055791 0.119288
					CHANNELS 3 Zrotation Yrotation Xrotation
					End Site
					{
						OFFSET 0.000000 0.000000 0.000000
					}
				}
			}
		}
	}
	JOINT RightUpLeg
	{
		OFFSET -0.067670 -0.090522 -0.004320
		CHANNELS 3 Zrotation Yrotation Xrotation
		JOINT RightLeg
		{
			OFFSET -0.038290 -0.382569 -0.008850
			CHANNELS 3 Zrotation Yrotation Xrotation
			JOINT RightFoot
			{
				OFFSET 0.015774 -0.398415 -0.042312
				CHANNELS 3 Zrotation Yrotation Xrotation
				JOINT RightToe
				{
					OFFSET -0.025372 -0.048144 0.123348
					CHANNELS 3 Zrotation Yrotation Xrotation
					End Site
					{
						OFFSET 0.000000 0.000000 0.000000
					}
				}
			}
		}
	}
	JOINT Spine
	{
		OFFSET -0.002533 0.108963 -0.026696
		CHANNELS 3 Zrotation Yrotation Xrotation
		JOINT Spine1
		{
			OFFSET 0.005487 0.135180 0.001092
			CHANNELS 3 Zrotation Yrotation Xrotation
			JOINT Spine2
			{
				OFFSET 0.001457 0.052922 0.025425
				CHANNELS 3 Zrotation Yrotation Xrotation
				JOINT Neck
				{
					OFFSET -0.002778 0.213870 -0.042857
					CHANNELS 3 Zrotation Yrotation Xrotation
					JOINT Head
					{
						OFFSET 0.005152 0.064970 0.051349
						CHANNELS 3 Zrotation Yrotation Xrotation
						End Site
						{
							OFFSET 0.000000 0.000000 0.000000
						}
					}
				}
				JOINT LeftShoulder
				{
					OFFSET 0.078845 0.121749 -0.034090
					CHANNELS 3 Zrotation Yrotation Xrotation
					JOINT LeftArm
					{
						OFFSET 0.090977 0.030469 -0.008868
						CHANNELS 3 Zrotation Yrotation Xrotation
						JOINT LeftForeArm
						{
							OFFSET 0.259612 -0.012772 -0.027456
							CHANNELS 3 Zrotation Yrotation Xrotation
							JOINT LeftHand
							{
								OFFSET 0.249234 0.008986 -0.001171
								CHANNELS 3 Zrotation Yrotation Xrotation
								End Site
								{
									OFFSET 0.000000 0.000000 0.000000
								}
							}
						}
					}
				}
				JOINT RightShoulder
				{
					OFFSET -0.081759 0.118833 -0.038615
					CHANNELS 3 Zrotation Yrotation Xrotation
					JOINT RightArm
					{
						OFFSET -0.096012 0.032551 -0.009143
						CHANNELS 3 Zrotation Yrotation Xrotation
						JOINT RightForeArm
						{
							OFFSET -0.253742 -0.013329 -0.021401
							CHANNELS 3 Zrotation Yrotation Xrotation
							JOINT RightHand
							{
								OFFSET -0.255298 0.007772 -0.005559
								CHANNELS 3 Zrotation Yrotation Xrotation
								End Site
								{
									OFFSET 0.000000 0.000000 0.000000
								}
							}
						}
					}
				}
			}
		}
	}
}
MOTION
Frames: 16
Frame Time: 0.05000000
0.000000 0.848021 0.000000 3.231133 -1.983087 -4.691862 -10.941772 -0.389938 -0.510920 1.263551 -0.944679 18.528226 8.184737 5.617091 -41.633613 0.000000 0.000000 0.000000 -3.848450 2.386259 -32.578661 9.717358 -4.330233 78.535409 -5.065530 -10.071856 -9.323680 0.000000 0.000000 0.000000 -1.726066 -0.137291 3.553179 -0.683620 0.598860 -16.121637 -2.373412 -0.463443 30.363142 3.635206 0.223098 -34.922210 0.000000 0.000000 0.000000 20.835265 5.269828 -0.301122 -88.663132 -12.135500 -0.161513 -14.394360 -25.449638 4.602484 0.000000 0.000000 0.000000 -24.525251 -6.623526 0.786835 97.730226 8.656755 -4.501119 16.922479 25.308572 4.753684 0.000000 0.000000 0.000000 
0.009657 0.844217 -0.381262 1.910315 0.902127 -3.881503 -9.487776 0.679786 4.836508 1.490897 -0.964022 15.983815 8.234409 2.617722 -40.267397 0.000000 0.000000 0.000000 -2.891748 3.180366 -41.210661 9.056981 -4.526033 71.195750 -6.483115 -14.479551 -8.604983 0.000000 0.000000 0.000000 -0.561001 -0.138216 3.533173 -0.619694 0.616398 -15.747564 -3.418270 -3.942241 29.863573 3.659536 -0.080227 -34.842148 0.000000 0.000000 0.000000 21.996188 3.589189 -0.421159 -89.845753 -18.641566 7.774867 -5.841337 -27.324134 2.856397 0.000000 0.000000 0.000000 -22.728426 -6.578208 1.055743 97.307235 6.323528 -8.647703 16.915091 19.127446 3.440128 0.000000 0.000000 0.000000 
0.009439 0.831935 -0.708880 1.439812 2.245219 -7.062798 -7.632560 2.284865 16.552276 1.579579 -0.664416 9.202507 8.952677 -0.596877 -44.442091 0.000000 0.000000 0.000000 -2.956453 2.855888 -39.577931 9.087168 -3.639326 53.354736 -7.146964 -14.388498 -17.620209 0.000000 0.000000 0.000000 -0.359455 -0.294905 7.505746 -0.210670 0.517372 -16.538233 -3.822696 -4.685949 30.498890 3.477557 0.038851 -35.925916 0.000000 0.000000 0.000000 24.119918 3.231183 -0.346369 -89.041994 -23.911922 12.625615 -2.107951 -32.491814 2.423236 0.000000 0.000000 0.000000 -22.628679 -8.738660 0.821437 95.014574 0.768932 -14.399136 18.019535 16.702773 3.108997 0.000000 0.000000 0.000000 
-0.002298 0.816023 -0.976234 1.717565 2.963536 -7.177764 -6.840759 2.959984 21.890322 0.661843 -0.472665 9.050216 9.434343 -1.143733 -46.440825 0.000000 0.000000 0.000000 -2.666781 2.746920 -37.769213 5.606617 -1.089783 30.379170 -6.096493 -8.676307 -22.265697 0.000000 0.000000 0.000000 -0.720740 -0.313238 8.099768 0.100949 0.393888 -15.279095 -4.187207 -6.473844 29.517636 2.834770 0.031254 -34.926029 0.000000 0.000000 0.000000 24.623839 3.373761 -0.675943 -88.546200 -26.799221 16.511721 3.721076 -35.724333 0.930726 0.000000 0.000000 0.000000 -22.881424 -10.204938 1.048625 94.758933 -1.571928 -17.855263 16.416842 13.841882 2.310308 0.000000 0.000000 0.000000 
-0.035051 0.803397 -1.148273 1.422310 3.909714 -3.168407 -5.623258 2.702053 20.491053 1.312716 -0.766457 12.332772 10.247502 -2.575330 -50.048776 0.000000 0.000000 0.000000 -3.666627 2.586506 -41.911720 6.553728 -1.390764 25.439763 -6.069439 -9.264161 -23.112574 0.000000 0.000000 0.000000 -0.316896 -0.133874 3.322005 0.160259 0.383218 -14.860700 -4.592155 -7.520082 29.856330 3.322320 -0.305219 -34.332274 0.000000 0.000000 0.000000 23.403573 3.482674 -0.834502 -87.287203 -27.306655 17.190280 6.257178 -41.060638 0.321117 0.000000 0.000000 0.000000 -22.362441 -10.971352 0.843671 93.186575 -6.182530 -21.688997 17.024845 13.524821 2.284777 0.000000 0.000000 0.000000 
-0.102278 0.794583 -1.169486 1.138636 4.860630 -0.418222 -5.041007 2.451060 18.863142 2.622327 -1.551853 19.614467 10.351062 -3.101399 -50.111844 0.000000 0.000000 0.000000 -1.330476 3.719852 -46.388988 4.560398 -0.909670 35.429533 -6.027222 -11.060532 -19.948395 0.000000 0.000000 0.000000 -0.009742 0.039492 -0.954029 0.540423 0.276275 -14.930068 -5.119241 -8.543511 30.139954 3.239303 -0.310881 -34.456729 0.000000 0.000000 0.000000 23.421974 4.334607 -1.058960 -87.679660 -24.250842 15.196292 4.234839 -45.785022 1.336371 0.000000 0.000000 0.000000 -23.009724 -11.854487 0.887397 91.414019 -8.469492 -23.320214 18.079683 12.042258 2.071125 0.000000 0.000000 0.000000 
-0.206819 0.798424 -1.108522 0.106343 3.171349 0.051793 -3.655951 2.035274 16.784563 1.295523 -1.940756 32.576620 7.202046 -6.908143 -38.651842 0.000000 0.000000 0.000000 2.850904 5.649318 -46.551818 2.527824 0.194686 45.434937 -5.237829 -9.458266 -14.590726 0.000000 0.000000 0.000000 0.872487 0.102931 -2.264135 0.759574 0.181799 -14.884192 -4.563604 -7.216633 29.605785 3.627585 -0.307579 -34.941486 0.000000 0.000000 0.000000 23.117744 5.365693 -1.043044 -89.955273 -20.079059 11.457172 2.134849 -49.119933 2.449514 0.000000 0.000000 0.000000 -22.252479 -11.437074 0.685802 91.641214 -8.267942 -22.626067 15.795315 12.111427 1.862675 0.000000 0.000000 0.000000 
-0.317752 0.807148 -1.176615 -0.625215 1.907409 -2.549347 -2.110781 0.881708 8.284236 -1.374656 -1.877531 57.351898 -0.314339 -10.418605 -14.314160 0.000000 0.000000 0.000000 6.386652 6.136578 -38.968122 0.525689 1.534148 48.979758 -5.188868 -6.950392 -19.174771 0.000000 0.000000 0.000000 1.209441 -0.037572 1.040249 0.688597 0.213774 -15.813291 -3.377964 -4.816018 29.262462 4.321843 -0.311794 -35.452592 0.000000 0.000000 0.000000 23.810733 5.357130 -0.556978 -90.195256 -17.158169 6.952740 -7.279731 -49.433637 6.642374 0.000000 0.000000 0.000000 -22.833201 -10.704260 0.526404 92.012609 -6.475896 -19.885301 17.486556 14.105304 2.440735 0.000000 0.000000 0.000000 
-0.387057 0.818865 -1.431187 -0.801955 0.822312 -5.987564 -0.402585 -0.194938 -1.901439 -5.059666 0.823666 77.047352 -1.609700 -3.918244 -0.937375 0.000000 0.000000 0.000000 8.011391 4.781300 -26.516211 -0.657191 2.163761 44.932193 -6.000356 -5.329144 -27.685137 0.000000 0.000000 0.000000 1.125666 -0.253638 6.036037 0.415576 0.297931 -16.324188 -1.696042 -2.050425 28.671803 4.154521 0.157241 -36.359760 0.000000 0.000000 0.000000 23.335460 5.541489 -0.048750 -90.186818 -15.679835 3.234514 -14.509118 -43.467593 8.490263 0.000000 0.000000 0.000000 -23.218620 -9.407630 0.317529 93.579062 -1.532424 -14.133098 17.169900 17.395106 3.091974 0.000000 0.000000 0.000000 
-0.403727 0.831295 -1.748343 0.558250 1.378573 -7.742467 -1.921627 -1.401243 -11.688002 -7.216391 3.096701 81.966719 3.681377 5.769044 -5.538930 0.000000 0.000000 0.000000 6.742272 2.610452 -14.743619 -1.239909 2.114455 38.257094 -6.742704 -2.018289 -35.686307 0.000000 0.000000 0.000000 -0.484934 -0.320330 8.304907 0.010216 0.427031 -16.243527 -0.635462 0.552632 28.586724 4.423214 0.403855 -36.408546 0.000000 0.000000 0.000000 24.433903 5.510254 0.688529 -92.076646 -15.324031 0.675350 -18.036748 -34.832161 7.678374 0.000000 0.000000 0.000000 -24.402222 -8.270450 0.010806 95.973334 3.682815 -7.168586 13.936768 21.820122 3.422018 0.000000 0.000000 0.000000 
-0.414030 0.841596 -2.074152 2.141262 0.528199 -7.392919 -2.417963 -2.905274 -23.617064 -9.328727 5.960138 80.408073 6.618655 11.654566 -9.153185 0.000000 0.000000 0.000000 5.713441 0.987955 -5.270008 -2.059230 1.971960 28.084077 -7.566671 0.012659 -40.331654 0.000000 0.000000 0.000000 -1.660437 -0.268248 7.325690 -0.694208 0.637535 -16.132179 0.273813 3.871138 29.188200 4.863105 0.561222 -36.064106 0.000000 0.000000 0.000000 24.354381 5.400824 1.338003 -92.028265 -13.551819 -3.451242 -21.138002 -27.841935 6.817745 0.000000 0.000000 0.000000 -24.803942 -6.887479 -0.491861 96.567900 9.322338 1.180852 11.720573 26.898675 3.824940 0.000000 0.000000 0.000000 
-0.421103 0.843701 -2.402346 3.632244 -2.557472 -4.759776 -0.966300 -3.408962 -34.132288 -10.979133 7.714424 70.221445 8.231325 15.264423 -12.032352 0.000000 0.000000 0.000000 3.133259 -0.125341 1.243162 -1.653834 1.311059 18.443541 -8.757145 2.784145 -43.947198 0.000000 0.000000 0.000000 -3.016733 -0.134463 3.455671 -1.572708 0.871711 -15.717267 1.864437 7.719224 29.484285 4.633667 0.979471 -35.503702 0.000000 0.000000 0.000000 24.806721 5.833955 1.883792 -91.241665 -9.626288 -8.920880 -23.144263 -23.375602 6.086251 0.000000 0.000000 0.000000 -25.171702 -4.857040 -0.862099 97.204876 14.238245 9.047983 7.387891 31.499003 3.384622 0.000000 0.000000 0.000000 
-0.411902 0.837029 -2.724313 3.815642 -4.612753 -7.500745 -0.904901 -3.260633 -34.095403 -8.346931 4.507433 54.349692 7.909588 13.271631 -18.323560 0.000000 0.000000 0.000000 2.021930 -1.375622 13.209774 -2.400690 0.920423 9.646302 -9.575382 5.857065 -45.673252 0.000000 0.000000 0.000000 -2.873657 -0.232771 7.286752 -1.718341 0.893036 -16.011822 2.673098 10.749818 29.408280 4.922248 1.161551 -35.934481 0.000000 0.000000 0.000000 24.071943 7.206042 2.104544 -90.132064 -5.886302 -13.959564 -23.145117 -19.304448 4.981954 0.000000 0.000000 0.000000 -25.529510 -4.397886 -1.283546 96.491697 20.062832 16.487568 2.153990 34.023420 2.198081 0.000000 0.000000 0.000000 
-0.386533 0.825538 -3.021434 3.728578 -6.380121 -7.693377 -0.379943 -2.848315 -33.101213 -5.848535 1.870186 32.150920 7.609656 12.148500 -22.295176 0.000000 0.000000 0.000000 0.671413 -1.828293 20.488822 -2.170425 0.525491 4.514710 -10.084782 7.814028 -46.532454 0.000000 0.000000 0.000000 -1.962853 -0.250561 7.897402 -1.784514 0.891185 -15.897186 3.254708 13.636294 29.744863 5.976361 0.927333 -34.915446 0.000000 0.000000 0.000000 24.074448 7.970849 2.505040 -90.172883 -3.022487 -18.209918 -22.897038 -15.976009 4.058847 0.000000 0.000000 0.000000 -25.584250 -4.678132 -1.863165 94.582562 23.645782 21.477190 -2.698396 36.881062 0.943142 0.000000 0.000000 0.000000 
-0.358217 0.811927 -3.239939 3.278101 -8.836621 -3.378120 1.754858 -2.132231 -36.883831 -6.024536 1.424527 19.273255 7.867191 14.298525 -23.128822 0.000000 0.000000 0.000000 -1.483337 -1.316488 20.348168 -0.591854 0.407600 7.098313 -10.794894 6.995936 -48.841673 0.000000 0.000000 0.000000 -1.064422 -0.077330 2.075188 -2.207373 0.992149 -15.312970 4.077953 15.229607 30.707721 5.664720 1.182607 -34.673800 0.000000 0.000000 0.000000 23.353603 8.413246 2.367571 -89.401474 0.954762 -21.598247 -23.032449 -13.631461 3.432896 0.000000 0.000000 0.000000 -26.147825 -4.145423 -1.984735 94.315852 25.009897 24.068788 -6.242473 38.837343 -0.167949 0.000000 0.000000 0.000000 
-0.316735 0.804157 -3.335644 3.755302 -9.156113 1.390011 0.886230 -2.759975 -43.543758 -5.822351 1.564858 24.533132 7.581153 14.354674 -19.691155 0.000000 0.000000 0.000000 -2.139966 -0.860176 16.158775 -4.691854 1.837115 15.744246 -10.830985 6.216406 -49.738384 0.000000 0.000000 0.000000 -1.451740 0.157698 -4.582096 -2.350087 1.027729 -14.658826 4.161594 15.507150 31.440623 5.190285 1.467808 -34.892807 0.000000 0.000000 0.000000 21.637569 8.648213 1.980433 -88.104176 3.025321 -22.657528 -20.813909 -11.487754 2.610418 0.000000 0.000000 0.000000 -25.120500 -4.100403 -2.064889 95.296533 24.566548 24.771075 -9.407511 38.790756 -1.166348 0.000000 0.000000 0.000000 
